<?xml version="1.0" encoding="UTF-8"?><svg id="a" xmlns="http://www.w3.org/2000/svg" viewBox="0 0 14 12"><defs><style>.b{fill:#4fab59;}.c{fill:#356e69;}.d{fill:#acc756;}.e{fill:#231e2b;}</style></defs><polygon class="e" points="8 11 8 9 1 9 1 3 8 3 8 1 9 1 9 0 7 0 7 2 0 2 0 10 7 10 7 12 9 12 9 11 8 11"/><rect class="e" x="9" y="10" width="1" height="1"/><rect class="c" x="8" y="10" width="1" height="1"/><rect class="e" x="10" y="9" width="1" height="1"/><rect class="c" x="9" y="9" width="1" height="1"/><rect class="e" x="11" y="8" width="1" height="1"/><rect class="c" x="10" y="8" width="1" height="1"/><rect class="c" x="1" y="8" width="7" height="1"/><rect class="e" x="12" y="7" width="1" height="1"/><rect class="c" x="11" y="7" width="1" height="1"/><rect class="c" x="12" y="6" width="1" height="1"/><rect class="e" x="13" y="5" width="1" height="2"/><rect class="d" x="12" y="5" width="1" height="1"/><polygon class="b" points="12 5 11 5 11 4 10 4 10 3 9 3 9 2 8 2 8 4 1 4 1 8 8 8 8 10 9 10 9 9 10 9 10 8 11 8 11 7 12 7 12 5"/><rect class="e" x="12" y="4" width="1" height="1"/><rect class="d" x="11" y="4" width="1" height="1"/><rect class="e" x="11" y="3" width="1" height="1"/><rect class="d" x="10" y="3" width="1" height="1"/><rect class="d" x="1" y="3" width="7" height="1"/><rect class="e" x="10" y="2" width="1" height="1"/><rect class="d" x="9" y="2" width="1" height="1"/><rect class="e" x="9" y="1" width="1" height="1"/><rect class="d" x="8" y="1" width="1" height="1"/></svg>