<?xml version="1.0" encoding="UTF-8"?><svg id="a" xmlns="http://www.w3.org/2000/svg" viewBox="0 0 14 12"><defs><style>.b{fill:#927bb3;}.c{fill:#231e2b;}.d{fill:#484085;}.e{fill:#6f59ab;}</style></defs><polygon class="c" points="5 11 5 12 7 12 7 10 14 10 14 2 7 2 7 0 5 0 5 1 6 1 6 3 13 3 13 9 6 9 6 11 5 11"/><rect class="c" x="4" y="10" width="1" height="1"/><rect class="d" x="5" y="10" width="1" height="1"/><rect class="c" x="3" y="9" width="1" height="1"/><rect class="d" x="4" y="9" width="1" height="1"/><rect class="c" x="2" y="8" width="1" height="1"/><rect class="d" x="3" y="8" width="1" height="1"/><rect class="d" x="6" y="8" width="7" height="1"/><rect class="c" x="1" y="7" width="1" height="1"/><rect class="d" x="2" y="7" width="1" height="1"/><rect class="d" x="1" y="6" width="1" height="1"/><rect class="c" x="0" y="5" width="1" height="2"/><rect class="b" x="1" y="5" width="1" height="1"/><polygon class="e" points="2 7 3 7 3 8 4 8 4 9 5 9 5 10 6 10 6 8 13 8 13 4 6 4 6 2 5 2 5 3 4 3 4 4 3 4 3 5 2 5 2 7"/><rect class="c" x="1" y="4" width="1" height="1"/><rect class="b" x="2" y="4" width="1" height="1"/><rect class="c" x="2" y="3" width="1" height="1"/><rect class="b" x="3" y="3" width="1" height="1"/><rect class="b" x="6" y="3" width="7" height="1"/><rect class="c" x="3" y="2" width="1" height="1"/><rect class="b" x="4" y="2" width="1" height="1"/><rect class="c" x="4" y="1" width="1" height="1"/><rect class="b" x="5" y="1" width="1" height="1"/></svg>