<svg id="svg2" xmlns="http://www.w3.org/2000/svg" viewBox="0 0 16.09 23.38"><defs><style>.cls-1{fill:#454a4c;}.cls-2{fill:#707577;}.cls-3{fill:#ffce00;}.cls-4{fill:red;}.cls-5{fill:#222526;}.cls-6{fill:#fff;}</style></defs><g id="g8"><g id="g10"><path id="path2004" class="cls-1" d="M16.09,16.08v1.46H14.63V16.08h1.46"/><path id="path2006" class="cls-1" d="M16.09,14.61v1.47H14.63V14.61h1.46"/><path id="path2008" class="cls-1" d="M16.08,13.15v1.46H14.62V13.15h1.46"/><path id="path2010" class="cls-1" d="M14.63,19v1.46H13.16V19h1.47"/><path id="path2012" class="cls-1" d="M14.63,17.54V19H13.16V17.54h1.47"/><path id="path2014" class="cls-1" d="M14.63,16.08v1.46H13.16V16.08h1.47"/><path id="path2016" class="cls-2" d="M14.63,14.61v1.47H13.16V14.61h1.47"/><path id="path2018" class="cls-2" d="M14.62,13.15v1.46H13.16V13.15h1.46"/><path id="path2020" class="cls-1" d="M14.62,11.69v1.46H13.16V11.69h1.46"/><path id="path2022" class="cls-1" d="M14.62,10.23v1.46H13.16V10.23h1.46"/><path id="path2024" class="cls-3" d="M14.62,1.46V2.92H13.15V1.46h1.47"/><path id="path2026" class="cls-1" d="M13.16,20.46v1.46H11.7V20.46h1.46"/><path id="path2028" class="cls-2" d="M13.16,19v1.46H11.7V19h1.46"/><path id="path2030" class="cls-2" d="M13.16,17.54V19H11.7V17.54h1.46"/><path id="path2032" class="cls-2" d="M13.16,16.08v1.46H11.7V16.08h1.46"/><path id="path2034" class="cls-2" d="M13.16,14.61v1.47H11.7V14.61h1.46"/><path id="path2036" class="cls-3" d="M13.16,0V1.46H11.7V0h1.46"/><path id="path2038" class="cls-2" d="M13.16,13.15v1.46H11.7V13.15h1.46"/><path id="path2040" class="cls-2" d="M13.16,11.69v1.46H11.7V11.69h1.46"/><path id="path2042" class="cls-1" d="M13.16,10.23v1.46H11.7V10.23h1.46"/><path id="path2044" class="cls-1" d="M13.16,8.77v1.46H11.7V8.77h1.46"/><path id="path2046" class="cls-3" d="M13.16,2.92V4.38H11.7V2.92h1.46"/><path id="path2048" class="cls-4" d="M13.15,1.46V2.92H11.69V1.46h1.46"/><path id="path2050" class="cls-1" d="M11.7,20.46v1.46H10.24V20.46H11.7"/><path id="path2052" class="cls-2" d="M11.7,19v1.46H10.24V19H11.7"/><path id="path2054" class="cls-2" d="M11.7,17.54V19H10.24V17.54H11.7"/><path id="path2056" class="cls-2" d="M11.7,16.08v1.46H10.24V16.08H11.7"/><path id="path2058" class="cls-2" d="M11.7,14.61v1.47H10.24V14.61H11.7"/><path id="path2060" class="cls-2" d="M11.7,13.15v1.46H10.23V13.15H11.7"/><path id="path2062" class="cls-2" d="M11.7,11.69v1.46H10.23V11.69H11.7"/><path id="path2064" class="cls-1" d="M11.7,10.23v1.46H10.23V10.23H11.7"/><path id="path2066" class="cls-1" d="M11.7,8.77v1.46H10.23V8.77H11.7"/><path id="path2068" class="cls-3" d="M11.69,1.46V2.92H10.23V1.46h1.46"/><path id="path2070" class="cls-1" d="M10.24,21.92v1.46H8.78V21.92h1.46"/><path id="path2072" class="cls-1" d="M10.24,20.46v1.46H8.78V20.46h1.46"/><path id="path2074" class="cls-2" d="M10.24,19v1.46H8.78V19h1.46"/><path id="path2076" class="cls-2" d="M10.24,17.54V19H8.78V17.54h1.46"/><path id="path2078" class="cls-2" d="M10.24,16.08v1.46H8.78V16.08h1.46"/><path id="path2080" class="cls-2" d="M10.24,14.61v1.47H8.78V14.61h1.46"/><path id="path2082" class="cls-2" d="M10.23,13.15v1.46H8.77V13.15h1.46"/><path id="path2084" class="cls-2" d="M10.23,11.69v1.46H8.77V11.69h1.46"/><path id="path2086" class="cls-2" d="M10.23,10.23v1.46H8.77V10.23h1.46"/><path id="path2088" class="cls-1" d="M10.23,8.77v1.46H8.77V8.77h1.46"/><path id="path2090" class="cls-1" d="M10.23,7.31V8.77H8.77V7.31h1.46"/><path id="path2092" class="cls-1" d="M10.23,5.85V7.31H8.77V5.85h1.46"/><path id="path2094" class="cls-5" d="M10.23,2.92V4.38H8.77V2.92h1.46"/><path id="path2096" class="cls-1" d="M8.78,21.92v1.46H7.31V21.92H8.78"/><path id="path2098" class="cls-2" d="M8.78,20.46v1.46H7.31V20.46H8.78"/><path id="path2100" class="cls-2" d="M8.78,19v1.46H7.31V19H8.78"/><path id="path2102" class="cls-2" d="M8.78,17.54V19H7.31V17.54H8.78"/><path id="path2104" class="cls-2" d="M8.78,16.08v1.46H7.31V16.08H8.78"/><path id="path2106" class="cls-2" d="M8.78,14.61v1.47H7.31V14.61H8.78"/><path id="path2108" class="cls-2" d="M8.77,13.15v1.46H7.31V13.15H8.77"/><path id="path2110" class="cls-2" d="M8.77,11.69v1.46H7.31V11.69H8.77"/><path id="path2112" class="cls-2" d="M8.77,10.23v1.46H7.31V10.23H8.77"/><path id="path2114" class="cls-1" d="M8.77,8.77v1.46H7.31V8.77H8.77"/><path id="path2116" class="cls-2" d="M8.77,7.31V8.77H7.31V7.31H8.77"/><path id="path2118" class="cls-2" d="M8.77,5.85V7.31H7.31V5.85H8.77"/><path id="path2120" class="cls-5" d="M8.77,4.38V5.85H7.31V4.38H8.77"/><path id="path2122" class="cls-1" d="M7.31,21.92v1.46H5.85V21.92H7.31"/><path id="path2124" class="cls-1" d="M7.31,20.46v1.46H5.85V20.46H7.31"/><path id="path2126" class="cls-2" d="M7.31,19v1.46H5.85V19H7.31"/><path id="path2128" class="cls-2" d="M7.31,17.54V19H5.85V17.54H7.31"/><path id="path2130" class="cls-2" d="M7.31,16.08v1.46H5.85V16.08H7.31"/><path id="path2132" class="cls-2" d="M7.31,14.61v1.47H5.85V14.61H7.31"/><path id="path2134" class="cls-6" d="M7.31,13.15v1.46H5.84V13.15H7.31"/><path id="path2136" class="cls-6" d="M7.31,11.69v1.46H5.84V11.69H7.31"/><path id="path2138" class="cls-2" d="M7.31,10.23v1.46H5.84V10.23H7.31"/><path id="path2140" class="cls-1" d="M7.31,8.77v1.46H5.84V8.77H7.31"/><path id="path2142" class="cls-2" d="M7.31,7.31V8.77H5.84V7.31H7.31"/><path id="path2144" class="cls-2" d="M7.31,5.85V7.31H5.84V5.85H7.31"/><path id="path2146" class="cls-1" d="M5.85,20.46v1.46H4.39V20.46H5.85"/><path id="path2148" class="cls-2" d="M5.85,19v1.46H4.39V19H5.85"/><path id="path2150" class="cls-2" d="M5.85,17.54V19H4.39V17.54H5.85"/><path id="path2152" class="cls-2" d="M5.85,16.08v1.46H4.39V16.08H5.85"/><path id="path2154" class="cls-6" d="M5.85,14.61v1.47H4.39V14.61H5.85"/><path id="path2156" class="cls-6" d="M5.84,13.15v1.46H4.38V13.15H5.84"/><path id="path2158" class="cls-6" d="M5.84,11.69v1.46H4.38V11.69H5.84"/><path id="path2160" class="cls-2" d="M5.84,10.23v1.46H4.38V10.23H5.84"/><path id="path2162" class="cls-2" d="M5.84,8.77v1.46H4.38V8.77H5.84"/><path id="path2164" class="cls-1" d="M4.39,20.46v1.46H2.93V20.46H4.39"/><path id="path2166" class="cls-2" d="M4.39,19v1.46H2.93V19H4.39"/><path id="path2168" class="cls-2" d="M4.39,17.54V19H2.93V17.54H4.39"/><path id="path2170" class="cls-2" d="M4.39,16.08v1.46H2.93V16.08H4.39"/><path id="path2172" class="cls-6" d="M4.39,14.61v1.47H2.93V14.61H4.39"/><path id="path2174" class="cls-6" d="M4.38,13.15v1.46H2.92V13.15H4.38"/><path id="path2176" class="cls-2" d="M4.38,11.69v1.46H2.92V11.69H4.38"/><path id="path2178" class="cls-2" d="M4.38,10.23v1.46H2.92V10.23H4.38"/><path id="path2180" class="cls-2" d="M4.38,8.77v1.46H2.92V8.77H4.38"/><path id="path2182" class="cls-1" d="M2.93,19v1.46H1.47V19H2.93"/><path id="path2184" class="cls-2" d="M2.93,17.54V19H1.47V17.54H2.93"/><path id="path2186" class="cls-2" d="M2.93,16.08v1.46H1.47V16.08H2.93"/><path id="path2188" class="cls-2" d="M2.93,14.61v1.47H1.47V14.61H2.93"/><path id="path2190" class="cls-2" d="M2.92,13.15v1.46H1.46V13.15H2.92"/><path id="path2192" class="cls-2" d="M2.92,11.69v1.46H1.46V11.69H2.92"/><path id="path2194" class="cls-2" d="M2.92,10.23v1.46H1.46V10.23H2.92"/><path id="path2196" class="cls-2" d="M1.47,16.08v1.46H0V16.08H1.47"/><path id="path2198" class="cls-2" d="M1.47,14.61v1.47H0V14.61H1.47"/><path id="path2200" class="cls-2" d="M1.46,13.15v1.46H0V13.15H1.46"/></g></g></svg>