<?xml version="1.0" encoding="utf-8"?>
<!-- Generator: Adobe Illustrator 26.1.0, SVG Export Plug-In . SVG Version: 6.00 Build 0)  -->
<svg version="1.1" id="Layer_1" xmlns="http://www.w3.org/2000/svg" xmlns:xlink="http://www.w3.org/1999/xlink" x="0px" y="0px"
	 viewBox="0 0 12 12" style="enable-background:new 0 0 12 12;" xml:space="preserve">
<style type="text/css">
	.st0{fill:#4FAB59;}
	.st1{fill:#356E69;}
	.st2{fill:#ACC756;}
	.st3{fill:#C7936B;}
	.st4{fill:#E8BE9B;}
</style>
<polygon class="st0" points="12,10 10,10 10,11 9,11 9,10 1,10 1,12 12,12 "/>
<rect x="9" y="10" class="st1" width="1" height="1"/>
<rect x="1" y="9" class="st2" width="11" height="1"/>
<rect y="7" class="st3" width="12" height="1"/>
<polygon class="st4" points="11,3 7,3 7,4 6,4 6,0 4,0 4,4 3,4 3,3 1,3 1,6 0,6 0,7 12,7 12,4 11,4 "/>
<rect x="6" y="3" class="st3" width="1" height="1"/>
<rect x="3" y="3" class="st3" width="1" height="1"/>
</svg>
