<?xml version="1.0" encoding="UTF-8"?><svg id="a" xmlns="http://www.w3.org/2000/svg" viewBox="0 0 539.67 560.47"><defs><style>.b{fill:#fff;}</style></defs><polygon class="b" points="539.67 200.47 519.87 200.47 519.87 160.36 499.87 160.36 499.87 120.25 479.81 120.25 479.81 100.3 459.93 100.3 459.93 80.35 439.89 80.35 439.89 60.46 419.88 60.46 419.88 40.46 399.69 40.46 399.69 20.76 359.62 20.76 359.62 0 180.06 0 180.06 20.76 140.13 20.76 140.13 40.41 119.88 40.41 119.88 60.44 99.97 60.44 99.97 80.38 79.94 80.38 79.94 100.31 60.09 100.31 60.09 120.54 39.97 120.54 39.97 160.36 19.94 160.36 19.94 200.38 0 200.38 0 380.19 19.84 380.19 19.84 420.25 39.87 420.25 39.87 440.43 59.93 440.43 59.93 460.41 79.84 460.41 79.84 480.39 99.83 480.39 99.83 500.52 119.85 500.52 119.85 520.36 139.94 520.36 139.94 540.49 179.89 540.49 179.89 560.47 219.73 560.47 219.73 540.49 219.73 507.89 219.73 480.39 139.94 480.39 139.94 460.41 119.91 460.41 119.91 440.43 99.83 440.43 99.83 420.44 79.84 420.44 79.84 440.43 79.75 440.43 79.75 420.25 79.84 420.25 79.84 400.41 119.91 400.41 119.91 420.44 139.94 420.44 139.94 440.43 159.96 440.43 159.96 460.41 199.82 460.41 199.82 440.43 219.8 440.43 219.8 420.44 239.86 420.44 239.86 400.41 159.96 400.41 159.96 380.28 139.94 380.28 139.94 360.16 119.91 360.16 119.91 340.31 99.59 340.31 99.59 220.41 119.91 220.41 119.91 200.38 139.84 200.38 139.84 180.39 119.91 180.39 119.91 120.25 140.13 120.25 180.06 120.25 180.06 140.34 200.03 140.34 200.03 160.36 219.84 160.36 219.84 140.34 319.98 140.34 319.98 160.36 339.79 160.36 339.79 140.34 359.62 140.34 359.62 120.25 399.69 120.25 409.89 120.25 419.88 120.25 420 120.25 420 180.35 399.94 180.35 399.94 200.37 420 200.37 420 220.41 440.08 220.41 440.08 340.31 419.91 340.31 419.91 360.54 399.92 360.54 399.92 380.33 379.94 380.33 379.94 400.41 358.77 400.41 339.87 400.41 300 400.41 300 420.25 319.94 420.25 319.94 440.33 339.87 440.33 339.87 475.48 339.87 480.25 339.87 500.09 339.87 560.28 379.82 560.28 379.82 540.35 399.87 540.35 399.87 520.36 419.91 520.36 419.91 500.09 439.56 500.09 439.56 480.25 459.87 480.25 459.87 460.17 479.62 460.17 479.62 440.33 500.08 440.33 500.08 420.49 519.87 420.49 519.87 380.33 539.67 380.33 539.67 200.47"/></svg>