<svg id="Слой_1" data-name="Слой 1" xmlns="http://www.w3.org/2000/svg" viewBox="0 0 221.91 222.21"><defs><style>.cls-1{fill:#f7dd87;}.cls-2{fill:#f5ca3b;}.cls-3{fill:#fff;}.cls-4{fill:#f6a135;}</style></defs><g id="sun"><rect class="cls-1" x="83.69" y="38.36" width="53.32" height="8.82"/><rect class="cls-1" x="74.98" y="47.18" width="17.72" height="9.3"/><rect class="cls-1" x="65.86" y="56.52" width="18.24" height="9.07"/><rect class="cls-1" x="56.79" y="65.59" width="9.07" height="9.07"/><rect class="cls-1" x="47.72" y="74.62" width="9.07" height="9.18"/><rect class="cls-1" x="38.93" y="83.8" width="9.07" height="53.92"/><rect class="cls-1" x="127.81" y="47.15" width="18.26" height="9.11" transform="translate(273.88 103.4) rotate(-180)"/><rect class="cls-1" x="136.91" y="56.26" width="18.31" height="9.11" transform="translate(292.14 121.62) rotate(-180)"/><rect class="cls-1" x="155.23" y="65.36" width="9.11" height="9.11" transform="translate(319.56 139.84) rotate(-180)"/><rect class="cls-1" x="164.33" y="74.32" width="9.11" height="9.33" transform="translate(337.78 157.97) rotate(-180)"/><rect class="cls-1" x="173.38" y="83.69" width="9.23" height="54.18" transform="translate(355.99 221.55) rotate(-180)"/><rect class="cls-1" x="81.46" y="174.33" width="55.46" height="8.82"/><rect class="cls-1" x="82.22" y="165.22" width="10.58" height="9.11"/><rect class="cls-1" x="65.38" y="156.12" width="18.31" height="9.11"/><rect class="cls-1" x="56.27" y="147.01" width="9.11" height="9.11"/><rect class="cls-1" x="128.28" y="165.26" width="9.11" height="9.11" transform="translate(265.67 339.63) rotate(180)"/><rect class="cls-1" x="136.91" y="156.15" width="18.31" height="9.11" transform="translate(292.14 321.41) rotate(180)"/><rect class="cls-1" x="155.23" y="147.04" width="9.11" height="9.11" transform="translate(319.56 303.19) rotate(180)"/><rect class="cls-1" x="164.33" y="137.86" width="9.11" height="9.11" transform="translate(337.78 284.83) rotate(180)"/><rect class="cls-1" x="74.98" y="165" width="9.07" height="9.07"/><rect class="cls-1" x="137.39" y="165.22" width="9.11" height="9.11"/><rect class="cls-1" x="99.9" y="6.05" width="9.07" height="9.07" transform="translate(115.02 -93.85) rotate(90)"/><rect class="cls-1" x="120.35" y="11.73" width="9.27" height="9.27" transform="translate(141.36 -108.62) rotate(90)"/><rect class="cls-1" x="128.13" y="30.28" width="9.07" height="9.07" transform="translate(167.48 -97.84) rotate(90)"/><rect class="cls-1" x="124" y="21.01" width="9.27" height="9.27" transform="translate(154.28 -102.99) rotate(90)"/><rect class="cls-1" x="84.09" y="30.28" width="9.07" height="9.07" transform="translate(123.45 -53.81) rotate(90)"/><rect class="cls-1" x="88.16" y="21.21" width="9.07" height="9.07" transform="translate(118.44 -66.94) rotate(90)"/><rect class="cls-1" x="92.1" y="12.14" width="9.07" height="9.07" transform="translate(113.31 -79.96) rotate(90)"/><rect class="cls-1" x="164.43" y="47.41" width="27.16" height="9.07" transform="translate(229.96 -126.07) rotate(90)"/><rect class="cls-1" x="169.5" y="65.55" width="9.07" height="9.07" transform="translate(244.12 -103.95) rotate(90)"/><rect class="cls-1" x="146.22" y="36.4" width="9.07" height="9.07" transform="translate(301.51 81.87) rotate(-180)"/><rect class="cls-1" x="159.85" y="29.27" width="9.07" height="18.19" transform="translate(202.75 -126.02) rotate(90)"/><rect class="cls-1" x="136.02" y="39.41" width="10.25" height="9.07" transform="translate(282.28 87.9) rotate(-180)"/><rect class="cls-1" x="112.84" y="6.05" width="9.07" height="9.07" transform="translate(127.96 -106.8) rotate(90)"/><rect class="cls-1" x="106.46" width="9.07" height="9.07" transform="translate(115.54 -106.46) rotate(90)"/><rect class="cls-1" x="112.28" y="207.09" width="9.07" height="9.07" transform="translate(-94.82 328.44) rotate(-90)"/><rect class="cls-1" x="91.54" y="201" width="9.07" height="9.07" transform="translate(-109.46 301.61) rotate(-90)"/><rect class="cls-1" x="84.05" y="182.86" width="9.07" height="9.07" transform="translate(-98.81 275.98) rotate(-90)"/><rect class="cls-1" x="87.97" y="191.93" width="9.07" height="9.07" transform="translate(-103.96 288.97) rotate(-90)"/><rect class="cls-1" x="128.08" y="182.86" width="9.07" height="9.07" transform="translate(-54.78 320.01) rotate(-90)"/><rect class="cls-1" x="124.02" y="191.93" width="9.07" height="9.07" transform="translate(-67.91 325.02) rotate(-90)"/><rect class="cls-1" x="120.07" y="201" width="9.07" height="9.07" transform="translate(-80.93 330.14) rotate(-90)"/><rect class="cls-1" x="99.33" y="207.09" width="9.07" height="9.07" transform="translate(-107.76 315.5) rotate(-90)"/><rect class="cls-1" x="105.71" y="213.14" width="9.07" height="9.07" transform="translate(-107.43 327.92) rotate(-90)"/><rect class="cls-1" x="6.05" y="112.76" width="9.07" height="9.07"/><rect class="cls-1" x="12.14" y="92.02" width="9.07" height="9.07"/><rect class="cls-1" x="30.28" y="84.53" width="9.07" height="9.07"/><rect class="cls-1" x="21.21" y="88.45" width="9.07" height="9.07"/><rect class="cls-1" x="30.28" y="128.56" width="9.07" height="9.07"/><rect class="cls-1" x="21.21" y="124.5" width="9.07" height="9.07"/><rect class="cls-1" x="12.14" y="120.55" width="9.07" height="9.07"/><rect class="cls-1" x="6.05" y="99.81" width="9.07" height="9.07"/><rect class="cls-1" y="106.19" width="9.07" height="9.07"/><rect class="cls-1" x="206.79" y="100.33" width="9.07" height="9.07" transform="translate(422.65 209.74) rotate(-180)"/><rect class="cls-1" x="200.69" y="121.07" width="9.07" height="9.07" transform="translate(410.46 251.22) rotate(-180)"/><rect class="cls-1" x="182.55" y="128.56" width="9.07" height="9.07" transform="translate(374.17 266.2) rotate(-180)"/><rect class="cls-1" x="191.62" y="124.64" width="9.07" height="9.07" transform="translate(392.31 258.35) rotate(-180)"/><rect class="cls-1" x="182.55" y="84.53" width="9.07" height="9.07" transform="translate(374.17 178.13) rotate(-180)"/><rect class="cls-1" x="191.62" y="88.59" width="9.07" height="9.07" transform="translate(392.31 186.26) rotate(-180)"/><rect class="cls-1" x="200.69" y="92.54" width="9.07" height="9.07" transform="translate(410.46 194.15) rotate(-180)"/><rect class="cls-1" x="206.79" y="113.28" width="9.07" height="9.07" transform="translate(422.65 235.63) rotate(-180)"/><rect class="cls-1" x="212.83" y="106.9" width="9.07" height="9.07" transform="translate(434.74 222.87) rotate(-180)"/><rect class="cls-1" x="29.6" y="47.41" width="27.16" height="9.07" transform="translate(95.13 8.76) rotate(90)"/><rect class="cls-1" x="42.63" y="65.55" width="9.07" height="9.07" transform="translate(117.25 22.93) rotate(90)"/><rect class="cls-1" x="65.76" y="36.4" width="9.21" height="9.07"/><rect class="cls-1" x="52.25" y="29.02" width="9.07" height="18.19" transform="translate(94.9 -18.67) rotate(90)"/><rect class="cls-1" x="74.93" y="38.79" width="9.17" height="9.07"/><rect class="cls-1" x="29.6" y="164.93" width="27.16" height="9.07" transform="translate(-126.28 212.64) rotate(-90)"/><rect class="cls-1" x="42.63" y="146.79" width="9.07" height="9.07" transform="translate(-104.16 198.48) rotate(-90)"/><rect class="cls-1" x="65.76" y="175.94" width="9.21" height="9.07"/><rect class="cls-1" x="52.25" y="174.2" width="9.07" height="18.19" transform="translate(-126.5 240.08) rotate(-90)"/><rect class="cls-1" x="74.93" y="173.55" width="9.07" height="9.07"/><rect class="cls-1" x="164.81" y="165.28" width="27.16" height="9.07" transform="translate(8.58 348.21) rotate(-90)"/><rect class="cls-1" x="169.7" y="146.96" width="9.42" height="9.07" transform="translate(22.92 325.91) rotate(-90)"/><rect class="cls-1" x="146.6" y="176.29" width="9.07" height="9.07" transform="translate(302.27 361.65) rotate(180)"/><rect class="cls-1" x="160.23" y="174.3" width="9.07" height="18.19" transform="translate(-18.63 348.16) rotate(-90)"/><rect class="cls-1" x="136.23" y="173.28" width="10.42" height="9.07" transform="translate(282.87 355.63) rotate(180)"/><polygon class="cls-2" points="173.06 83.27 163.82 83.27 163.82 74.15 154.72 74.15 154.72 64.94 136.43 64.94 136.43 56.04 127.62 56.04 127.62 46.71 92.18 46.71 92.18 56.04 83.27 56.04 83.27 65.05 64.98 65.05 64.98 74.15 55.88 74.15 55.88 83.33 47.48 83.33 47.48 137.25 55.88 137.25 55.88 146.31 64.98 146.31 64.98 155.64 83.27 155.64 83.27 164.79 92.36 164.79 92.36 173.86 127.81 173.86 127.81 164.79 136.43 164.79 136.43 155.53 154.72 155.53 154.72 146.31 163.82 146.31 163.82 137.2 173.06 137.2 173.06 83.27"/><polygon class="cls-2" points="169.88 156.23 169.88 147.04 164.41 147.04 164.41 156.23 155.23 156.23 155.23 165.26 146.49 165.26 146.49 176.25 155.23 176.25 155.23 178.74 173.58 178.74 173.58 156.23 169.88 156.23"/><polygon class="cls-2" points="212.84 109.41 206.79 109.41 206.79 101.61 200.36 101.61 200.36 97.67 191.62 97.67 191.62 93.6 182.55 93.6 182.55 128.56 191.62 128.56 191.62 124.5 200.36 124.5 200.36 121.15 206.79 121.15 206.79 113.21 212.84 113.21 212.84 109.41"/><polygon class="cls-2" points="108.92 9.07 108.92 15.12 101.13 15.12 101.13 21.54 97.18 21.54 97.18 30.28 93.12 30.28 93.12 39.35 128.08 39.35 128.08 30.28 124.02 30.28 124.02 21.54 120.66 21.54 120.66 15.12 112.72 15.12 112.72 9.07 108.92 9.07"/><polygon class="cls-2" points="51.7 156.23 51.7 147.04 57.18 147.04 57.18 156.23 66.36 156.23 66.36 165.26 75.09 165.26 75.09 176.25 66.36 176.25 66.36 178.74 48 178.74 48 156.23 51.7 156.23"/><polygon class="cls-2" points="112.47 213.44 112.47 207.39 120.26 207.39 120.26 200.97 124.2 200.97 124.2 192.23 128.27 192.23 128.27 183.16 93.31 183.16 93.31 192.23 97.37 192.23 97.37 200.97 100.72 200.97 100.72 207.39 108.66 207.39 108.66 213.44 112.47 213.44"/><polygon class="cls-2" points="8.79 112.76 14.84 112.76 14.84 120.56 21.26 120.56 21.26 124.5 30 124.5 30 128.56 39.07 128.56 39.07 93.6 30 93.6 30 97.67 21.26 97.67 21.26 101.02 14.84 101.02 14.84 108.96 8.79 108.96 8.79 112.76"/><polygon class="cls-2" points="51.7 65.41 51.7 74.6 57.18 74.6 57.18 65.41 66.36 65.41 66.36 56.38 75.09 56.38 75.09 45.39 66.36 45.39 66.36 42.9 48 42.9 48 65.41 51.7 65.41"/><polygon class="cls-2" points="169.62 65.41 169.62 74.6 164.15 74.6 164.15 65.41 154.97 65.41 154.97 56.38 146.23 56.38 146.23 45.39 154.97 45.39 154.97 42.9 173.33 42.9 173.33 65.41 169.62 65.41"/><rect class="cls-3" x="92.18" y="46.76" width="35.8" height="9.33"/><rect class="cls-3" x="83.54" y="56.22" width="9.07" height="9.18"/><rect class="cls-3" x="127.81" y="56.22" width="9.07" height="9.18"/><rect class="cls-3" x="136.91" y="65.36" width="18.31" height="9.11" transform="translate(292.14 139.84) rotate(-180)"/><rect class="cls-3" x="65.35" y="65.53" width="18.31" height="9.11" transform="translate(149.02 140.16) rotate(-180)"/><rect class="cls-4" x="136.91" y="146.77" width="18.31" height="9.11" transform="translate(292.14 302.65) rotate(-180)"/><rect class="cls-4" x="65.35" y="146.77" width="18.31" height="9.11" transform="translate(149.02 302.65) rotate(-180)"/><rect class="cls-4" x="92.61" y="156.23" width="35.67" height="18.21"/><rect class="cls-4" x="83.86" y="156.05" width="9.07" height="9.18"/><rect class="cls-4" x="127.84" y="156.05" width="9.07" height="9.18"/><rect class="cls-4" x="136.91" y="137.81" width="27.46" height="9.11" transform="translate(301.29 284.74) rotate(-180)"/><rect class="cls-4" x="127.84" y="146.83" width="9.07" height="9.18"/><rect class="cls-4" x="83.43" y="146.83" width="9.07" height="9.18"/><rect class="cls-4" x="56.61" y="137.81" width="27.44" height="9.11" transform="translate(140.66 284.74) rotate(-180)"/><rect class="cls-3" x="30.07" y="93.6" width="9.07" height="9.18"/><rect class="cls-3" x="21.21" y="97.52" width="9.07" height="9.18"/><rect class="cls-3" x="14.86" y="101.09" width="9.07" height="9.18"/><rect class="cls-3" x="182.55" y="93.6" width="9.07" height="9.18"/><rect class="cls-3" x="191.62" y="97.7" width="9.07" height="9.18"/><rect class="cls-3" x="197.69" y="101.6" width="9.07" height="9.18"/><rect class="cls-3" x="101.17" y="15.12" width="9.07" height="6.09"/><rect class="cls-3" x="111.57" y="15.12" width="9.07" height="6.09"/><rect class="cls-3" x="108.97" y="9.07" width="3.87" height="6.05"/><rect class="cls-3" x="108.51" y="207.39" width="3.87" height="6.05"/><rect class="cls-3" x="100.61" y="201" width="9.07" height="6.47"/><rect class="cls-3" x="111.28" y="201" width="9.07" height="6.47"/><rect class="cls-3" x="47.72" y="42.6" width="18.76" height="9.18"/><rect class="cls-3" x="65.83" y="45.47" width="9.07" height="9.18"/><rect class="cls-3" x="51.7" y="147.01" width="5.48" height="8.88"/><rect class="cls-3" x="47.72" y="156.05" width="9.07" height="22.71"/><rect class="cls-3" x="146.27" y="45.47" width="9.07" height="9.18"/><rect class="cls-3" x="155.24" y="42.6" width="18.08" height="9.18"/><rect class="cls-3" x="164.4" y="147.02" width="5.48" height="8.88"/><rect class="cls-3" x="164.35" y="156.06" width="9.07" height="22.71"/><rect class="cls-4" x="48.11" y="128.51" width="9.07" height="9.18"/><rect class="cls-4" x="164.41" y="128.51" width="9.07" height="9.18"/><rect x="80.36" y="87.48" width="9.07" height="9.07" transform="translate(-7.12 176.92) rotate(-90)"/><rect x="80.36" y="96.55" width="9.07" height="9.07" transform="translate(-16.19 185.99) rotate(-90)"/><rect x="75.83" y="92.02" width="9.07" height="9.07" transform="translate(-16.19 176.92) rotate(-90)"/><rect x="84.9" y="92.02" width="9.07" height="9.07" transform="translate(-7.12 185.99) rotate(-90)"/><rect x="131.14" y="87.48" width="9.07" height="9.07" transform="translate(43.65 227.69) rotate(-90)"/><rect x="131.14" y="96.55" width="9.07" height="9.07" transform="translate(34.58 236.76) rotate(-90)"/><rect x="126.6" y="92.02" width="9.07" height="9.07" transform="translate(34.58 227.69) rotate(-90)"/><rect x="135.67" y="92.02" width="9.07" height="9.07" transform="translate(43.65 236.76) rotate(-90)"/><rect class="cls-3" x="82.63" y="91.76" width="4.54" height="4.59"/><rect class="cls-3" x="133.41" y="91.76" width="4.54" height="4.59"/><rect x="101.06" y="133.08" width="18.31" height="9.11"/><rect class="cls-1" x="47.14" y="137.49" width="9.11" height="9.11" transform="translate(103.39 284.09) rotate(180)"/></g></svg>