<?xml version="1.0" encoding="UTF-8"?><svg id="a" xmlns="http://www.w3.org/2000/svg" viewBox="0 0 7 12"><defs><style>.b{fill:#4fab59;}.c{fill:#356e69;}.d{fill:#acc756;}.e{fill:#231e2b;}</style></defs><rect class="e" x="2" y="10" width="1" height="1"/><rect class="c" x="1" y="10" width="1" height="1"/><rect class="e" x="3" y="9" width="1" height="1"/><rect class="c" x="2" y="9" width="1" height="1"/><rect class="e" x="4" y="8" width="1" height="1"/><rect class="c" x="3" y="8" width="1" height="1"/><rect class="e" x="5" y="7" width="1" height="1"/><rect class="c" x="4" y="7" width="1" height="1"/><rect class="c" x="5" y="6" width="1" height="1"/><rect class="e" x="6" y="5" width="1" height="2"/><rect class="d" x="5" y="5" width="1" height="1"/><rect class="e" x="5" y="4" width="1" height="1"/><rect class="d" x="4" y="4" width="1" height="1"/><rect class="e" x="4" y="3" width="1" height="1"/><rect class="d" x="3" y="3" width="1" height="1"/><rect class="e" x="3" y="2" width="1" height="1"/><rect class="d" x="2" y="2" width="1" height="1"/><rect class="e" x="2" y="1" width="1" height="1"/><rect class="d" x="1" y="1" width="1" height="1"/><polygon class="e" points="2 1 2 0 0 0 0 2 0 3 0 9 0 10 0 12 2 12 2 11 1 11 1 10 1 10 1 2 1 2 1 1 2 1"/><polygon class="b" points="4 5 4 4 3 4 3 3 2 3 2 2 1 2 1 10 2 10 2 9 3 9 3 8 4 8 4 7 5 7 5 5 4 5"/></svg>