<?xml version="1.0" encoding="utf-8"?>
<!-- Generator: Adobe Illustrator 26.1.0, SVG Export Plug-In . SVG Version: 6.00 Build 0)  -->
<svg version="1.1" id="Layer_1" xmlns="http://www.w3.org/2000/svg" width="40" height="40" xmlns:xlink="http://www.w3.org/1999/xlink" x="0px" y="0px"
	 viewBox="0 0 35 35" style="enable-background:new 0 0 35 35;" xml:space="preserve">
<style type="text/css">
	.st0{fill:#484085;}
	.st1{fill:#231E2B;}
	.st2{fill:#927BB3;}
	.st3{fill:#B6B7B8;}
	.st4{fill:#B0392E;}
	.st5{fill:#892727;}
	.st6{fill:#CF8934;}
	.st7{fill:#6F59AB;}
	.st8{fill:#E2B436;}
	.st9{fill:#F7FEFF;}
</style>
<rect x="5" y="32.5" class="st0" width="25" height="2.5"/>
<rect x="30" y="30" class="st0" width="2.5" height="2.5"/>
<rect x="2.5" y="30" class="st0" width="2.5" height="2.5"/>
<rect x="7.5" y="27.5" class="st1" width="20" height="2.5"/>
<rect y="20" class="st0" width="2.5" height="10"/>
<rect x="32.5" y="5" class="st2" width="2.5" height="7.5"/>
<polygon class="st0" points="30,27.5 27.5,27.5 27.5,30 7.5,30 7.5,27.5 5,27.5 5,20 2.5,20 2.5,30 5,30 5,32.5 30,32.5 30,30 
	32.5,30 32.5,25 30,25 "/>
<rect x="25" y="25" class="st3" width="2.5" height="2.5"/>
<rect x="15" y="25" class="st3" width="5" height="2.5"/>
<rect x="7.5" y="25" class="st3" width="2.5" height="2.5"/>
<rect x="15" y="22.5" class="st4" width="5" height="2.5"/>
<rect x="5" y="7.5" class="st1" width="2.5" height="20"/>
<rect x="15" y="20" class="st5" width="5" height="2.5"/>
<rect x="20" y="17.5" class="st3" width="2.5" height="2.5"/>
<polygon class="st6" points="20,20 20,17.5 17.5,17.5 17.5,15 15,15 15,20 "/>
<polygon class="st7" points="5,7.5 7.5,7.5 7.5,5 17.5,5 17.5,2.5 5,2.5 5,5 2.5,5 2.5,20 5,20 "/>
<rect x="22.5" y="15" class="st3" width="2.5" height="2.5"/>
<rect x="17.5" y="15" class="st8" width="2.5" height="2.5"/>
<rect x="30" y="12.5" class="st7" width="2.5" height="12.5"/>
<polygon class="st9" points="25,17.5 22.5,17.5 22.5,20 20,20 20,27.5 25,27.5 25,25 27.5,25 27.5,10 25,10 "/>
<rect x="27.5" y="7.5" class="st1" width="2.5" height="20"/>
<polygon class="st1" points="20,10 20,12.5 17.5,12.5 17.5,15 20,15 20,17.5 22.5,17.5 22.5,15 25,15 25,10 "/>
<polygon class="st9" points="7.5,10 7.5,25 10,25 10,27.5 15,27.5 15,15 17.5,15 17.5,12.5 20,12.5 20,10 25,10 25,7.5 10,7.5 
	10,10 "/>
<rect x="25" y="7.5" class="st3" width="2.5" height="2.5"/>
<rect x="7.5" y="7.5" class="st3" width="2.5" height="2.5"/>
<rect x="7.5" y="5" class="st1" width="20" height="2.5"/>
<rect x="30" y="2.5" class="st2" width="2.5" height="2.5"/>
<polygon class="st2" points="30,2.5 17.5,2.5 17.5,5 27.5,5 27.5,7.5 30,7.5 30,12.5 32.5,12.5 32.5,5 30,5 "/>
<rect x="2.5" y="2.5" class="st7" width="2.5" height="2.5"/>
<rect x="17.5" class="st2" width="12.5" height="2.5"/>
<rect x="5" class="st7" width="12.5" height="2.5"/>
<rect x="0" y="5" class="st7" width="2.5" height="15"/>
<rect x="32.5" y="25" class="st0" width="2.5" height="5"/>
<rect x="32.5" y="12.5" class="st7" width="2.5" height="12.5"/>
</svg>
