<?xml version="1.0" encoding="utf-8"?>
<!-- Generator: Adobe Illustrator 26.1.0, SVG Export Plug-In . SVG Version: 6.00 Build 0)  -->
<svg version="1.1" id="Layer_1" xmlns="http://www.w3.org/2000/svg" xmlns:xlink="http://www.w3.org/1999/xlink" x="0px" y="0px"
	 viewBox="0 0 10 12" style="enable-background:new 0 0 10 12;" xml:space="preserve">
<style type="text/css">
	.st0{fill:#E2B436;}
	.st1{fill:#892727;}
	.st2{fill:#CF8934;}
	.st3{fill:#9A2D2D;}
	.st4{fill:#CF6B55;}
	.st5{fill:#B0392E;}
</style>
<rect y="8" class="st0" width="1" height="4"/>
<rect x="5" y="7" class="st1" width="2" height="1"/>
<rect y="7" class="st2" width="1" height="1"/>
<rect x="7" y="6" class="st1" width="1" height="1"/>
<rect x="4" y="6" class="st1" width="1" height="1"/>
<rect x="1" y="6" class="st1" width="1" height="1"/>
<polygon class="st3" points="8,5 8,2 7,2 7,3 5,3 5,2 4,2 4,5 2,5 2,2 1,2 1,6 5,6 5,7 7,7 7,6 10,6 10,5 "/>
<rect y="1" class="st4" width="1" height="6"/>
<rect x="5" y="2" class="st5" width="2" height="1"/>
<polygon class="st5" points="8,2 8,5 10,5 10,4 9,4 9,2 10,2 10,1 7,1 7,2 "/>
<polygon class="st5" points="1,1 1,2 2,2 2,5 4,5 4,2 5,2 5,1 "/>
<rect x="8" class="st4" width="2" height="1"/>
<rect x="2" class="st4" width="2" height="1"/>
</svg>
