<?xml version="1.0" encoding="UTF-8"?><svg id="a" xmlns="http://www.w3.org/2000/svg" viewBox="0 0 1209.64 611.99"><defs><style>.b{fill:#fff;}.c{fill:#fee010;}.d{fill:#050304;}.e{fill:#ca2527;}.f{fill:#f5e83a;}</style></defs><g><polygon class="d" points="21 240 21 261 240 261 240 240 261 240 261 105 240 105 240 93 261 93 261 0 21 0 21 21 0 21 0 240 21 240"/><path class="e" d="M225,246H36v-21H15V57h21v-21H246v42H99v126h63v-42h-42v-42h105v21h21v84h-21v21Z"/><path class="c" d="M225,225H36v-21H15V36h21V15H246V57H99v126h63v-42h-42v-42h105v21h21v84h-21v21Z"/><polygon class="f" points="99 120.05 99 57 246 57 246 15 36 15 36 36 15 36 15 120.05 99 120.05"/><rect class="f" x="120" y="99" width="105" height="21.05"/><rect class="b" x="35.86" y="15" width="210" height="21"/></g><g><polygon class="d" points="416.21 261 416.21 177 449.21 177 449.21 261 563.21 261 563.21 21 542.21 21 542.21 0 323.21 0 323.21 21 302.21 21 302.21 261 416.21 261"/><path class="e" d="M401.21,246h-84V57h21v-21h189v21h21V246h-84v-84h-63v84Zm0-126h63v-42h-63v42Z"/><path class="c" d="M401.21,225h-84V36h21V15h189v21h21V225h-84v-84h-63v84Zm0-126h63V57h-63v42Z"/><path class="f" d="M548.21,120.05V36h-21V15h-189v21h-21V120.05h231Zm-147-63.05h63v42h-63V57Z"/><rect class="b" x="338.08" y="15" width="189" height="21"/></g><g><polygon class="d" points="718.43 261 718.43 177 730.43 177 730.43 198 781.43 198 781.43 177 793.43 177 793.43 261 907.43 261 907.43 0 793.43 0 793.43 21 772.43 21 772.43 42 739.43 42 739.43 21 718.43 21 718.43 0 604.43 0 604.43 261 718.43 261"/><path class="e" d="M703.43,246h-84V36h84v21h21v21h21v21h21v-21h21v-21h21v-21h84V246h-84v-105h-21v21h-21v21h-21v-21h-21v-21h-21v105Z"/><path class="c" d="M703.43,225h-84V15h84v21h21v21h21v21h21v-21h21v-21h21V15h84V225h-84V120h-21v21h-21v21h-21v-21h-21v-21h-21v105Z"/><polygon class="f" points="892.43 120.13 892.43 15 808.43 15 808.43 36 787.43 36 787.43 57 766.43 57 766.43 78 745.43 78 745.43 57 724.43 57 724.43 36 703.43 36 703.43 15 619.43 15 619.43 120.13 892.43 120.13"/><rect class="b" x="808.43" y="15" width="84" height="20.55"/><rect class="b" x="619.43" y="15" width="84" height="20.55"/></g><g><polygon class="d" points="969.64 240 969.64 261 1209.64 261 1209.64 168 1125.64 168 1125.64 93 1209.64 93 1209.64 0 969.64 0 969.64 21 948.64 21 948.64 240 969.64 240"/><path class="e" d="M984.64,225h-21V57h21v-21h210v42h-147v42h63v42h-63v42h147v42h-210v-21Z"/><path class="c" d="M984.64,204h-21V36h21V15h210V57h-147v42h63v42h-63v42h147v42h-210v-21Z"/><polygon class="f" points="1110.64 120.05 1110.64 99 1047.64 99 1047.64 57 1194.64 57 1194.64 15 984.64 15 984.64 36 963.64 36 963.64 120.05 1110.64 120.05"/><rect class="b" x="984.51" y="15" width="210" height="21"/></g><g><path class="d" d="M240,350.99H21v21H0v219H21v21H240v-21h21v-219h-21v-21Zm-126,168v-75h33v75h-33Z"/><path class="e" d="M225,596.99H36v-21H15v-168h21v-21H225v21h21v168h-21v21Zm-63-126v-42h-63v126h63v-84Z"/><path class="c" d="M225,575.99H36v-21H15v-168h21v-21H225v21h21v168h-21v21Zm-63-126v-42h-63v126h63v-84Z"/><polygon class="f" points="99 471.12 99 407.99 162 407.99 162 471.12 246 471.12 246 386.99 225 386.99 225 365.99 36 365.99 36 386.99 15 386.99 15 471.12 99 471.12"/><rect class="b" x="36" y="365.99" width="189" height="20.55"/></g><g><polygon class="d" points="500.21 569.99 521.21 569.99 521.21 548.99 542.21 548.99 542.21 527.99 563.21 527.99 563.21 350.99 449.21 350.99 449.21 455.99 428.21 455.99 428.21 476.99 416.21 476.99 416.21 350.99 302.21 350.99 302.21 611.99 479.21 611.99 479.21 590.99 500.21 590.99 500.21 569.99"/><path class="e" d="M464.21,596.99h-147v-210h84v147h21v-21h21v-21h21v-105h84v126h-21v21h-21v21h-21v21h-21v21Z"/><path class="c" d="M464.21,575.99h-147v-210h84v147h21v-21h21v-21h21v-105h84v126h-21v21h-21v21h-21v21h-21v21Z"/><rect class="f" x="464.21" y="365.99" width="84" height="105"/><rect class="f" x="317.21" y="365.99" width="84" height="105"/><rect class="b" x="464.21" y="365.99" width="84" height="21"/><rect class="b" x="317.21" y="365.99" width="84" height="21"/></g><g><polygon class="d" points="646.43 590.99 646.43 611.99 886.43 611.99 886.43 518.99 802.43 518.99 802.43 443.99 886.43 443.99 886.43 350.99 646.43 350.99 646.43 371.99 625.43 371.99 625.43 590.99 646.43 590.99"/><path class="e" d="M661.43,575.99h-21v-168h21v-21h210v42h-147v42h63v42h-63v42h147v42h-210v-21Z"/><path class="c" d="M661.43,554.99h-21v-168h21v-21h210v42h-147v42h63v42h-63v42h147v42h-210v-21Z"/><polygon class="f" points="787.43 471.04 787.43 449.99 724.43 449.99 724.43 407.99 871.43 407.99 871.43 365.99 661.43 365.99 661.43 386.99 640.43 386.99 640.43 471.04 787.43 471.04"/><rect class="b" x="661.29" y="365.99" width="210" height="21"/></g><g><polygon class="d" points="948.64 350.99 948.64 611.99 1062.64 611.99 1062.64 527.99 1095.64 527.99 1095.64 611.99 1209.64 611.99 1209.64 371.99 1188.64 371.99 1188.64 350.99 948.64 350.99"/><path class="e" d="M1047.64,596.99h-84v-210h210v21h21v63h-21v42h21v84h-84v-84h-63v84Zm0-126h63v-42h-63v42Z"/><path class="c" d="M1047.64,575.99h-84v-210h210v21h21v63h-21v42h21v84h-84v-84h-63v84Zm0-126h63v-42h-63v42Z"/><path class="f" d="M1173.64,471.12v-21.13h21v-63h-21v-21h-210v105.13h210Zm-126-63.13h63v42h-63v-42Z"/><rect class="b" x="963.64" y="365.99" width="210" height="20.55"/></g></svg>