<svg id="Слой_1" data-name="Слой 1" xmlns="http://www.w3.org/2000/svg" viewBox="0 0 83.62 83.6"><defs><style>.cls-1{fill:#ff9100;}.cls-2{fill:#ffb600;}.cls-3{fill:#ffce00;}.cls-4{fill:#ffe36c;}</style></defs><polygon class="cls-1" points="83.62 33.44 83.62 39.02 78.07 39.02 78.04 39.02 78.04 33.44 83.62 33.44"/><rect class="cls-1" x="78.04" y="27.87" width="5.58" height="5.58"/><rect class="cls-1" x="72.5" y="78.03" width="5.57" height="5.57"/><rect class="cls-1" x="72.5" y="72.46" width="5.57" height="5.57"/><polygon class="cls-1" points="78.07 39.02 78.07 44.59 72.5 44.59 72.5 39.02 78.04 39.02 78.07 39.02"/><polygon class="cls-2" points="78.04 33.44 78.04 39.02 72.5 39.02 72.47 39.02 72.47 33.44 78.04 33.44"/><rect class="cls-1" x="72.47" y="27.87" width="5.57" height="5.58"/><rect class="cls-1" x="66.93" y="78.03" width="5.57" height="5.57"/><rect class="cls-2" x="66.93" y="72.46" width="5.57" height="5.57"/><rect class="cls-1" x="66.93" y="66.88" width="5.57" height="5.58"/><rect class="cls-1" x="66.93" y="61.31" width="5.57" height="5.57"/><rect class="cls-1" x="66.93" y="44.59" width="5.57" height="5.57"/><polygon class="cls-2" points="72.5 39.02 72.5 44.59 66.93 44.59 66.93 39.02 72.47 39.02 72.5 39.02"/><polygon class="cls-3" points="72.47 33.44 72.47 39.02 66.93 39.02 66.89 39.02 66.89 33.44 72.47 33.44"/><rect class="cls-1" x="66.89" y="27.87" width="5.58" height="5.58"/><rect class="cls-1" x="61.35" y="78.03" width="5.58" height="5.57"/><rect class="cls-2" x="61.35" y="72.46" width="5.58" height="5.57"/><rect class="cls-2" x="61.35" y="66.88" width="5.58" height="5.58"/><rect class="cls-2" x="61.35" y="61.31" width="5.58" height="5.57"/><rect class="cls-1" x="61.35" y="55.73" width="5.58" height="5.58"/><rect class="cls-1" x="61.35" y="50.16" width="5.58" height="5.57"/><rect class="cls-2" x="61.35" y="44.59" width="5.58" height="5.57"/><polygon class="cls-3" points="66.93 39.02 66.93 44.59 61.35 44.59 61.35 39.02 66.89 39.02 66.93 39.02"/><polygon class="cls-3" points="66.89 33.44 66.89 39.02 61.35 39.02 61.32 39.02 61.32 33.44 66.89 33.44"/><rect class="cls-1" x="61.32" y="27.87" width="5.57" height="5.58"/><rect class="cls-1" x="55.78" y="72.46" width="5.57" height="5.57"/><rect class="cls-3" x="55.78" y="66.88" width="5.57" height="5.58"/><rect class="cls-3" x="55.78" y="61.31" width="5.57" height="5.57"/><rect class="cls-1" x="55.78" y="55.73" width="5.57" height="5.58"/><rect class="cls-2" x="55.78" y="50.16" width="5.57" height="5.57"/><rect class="cls-3" x="55.78" y="44.59" width="5.57" height="5.57"/><polygon class="cls-3" points="61.35 39.02 61.35 44.59 55.78 44.59 55.78 39.02 61.32 39.02 61.35 39.02"/><polygon class="cls-3" points="61.32 33.44 61.32 39.02 55.78 39.02 55.75 39.02 55.75 33.44 61.32 33.44"/><rect class="cls-1" x="55.75" y="27.87" width="5.57" height="5.58"/><rect class="cls-1" x="50.2" y="72.46" width="5.58" height="5.57"/><rect class="cls-2" x="50.2" y="66.88" width="5.58" height="5.58"/><rect class="cls-3" x="50.2" y="61.31" width="5.58" height="5.57"/><rect class="cls-4" x="50.2" y="55.73" width="5.58" height="5.58"/><rect class="cls-3" x="50.2" y="50.16" width="5.58" height="5.57"/><rect class="cls-3" x="50.2" y="44.59" width="5.58" height="5.57"/><polygon class="cls-3" points="55.78 39.02 55.78 44.59 50.2 44.59 50.2 39.02 55.75 39.02 55.78 39.02"/><polygon class="cls-3" points="55.75 33.44 55.75 39.02 50.2 39.02 50.17 39.02 50.17 33.44 55.75 33.44"/><rect class="cls-2" x="50.17" y="27.87" width="5.58" height="5.58"/><rect class="cls-1" x="50.17" y="22.3" width="5.58" height="5.57"/><rect class="cls-1" x="50.17" y="16.72" width="5.58" height="5.58"/><rect class="cls-1" x="44.63" y="66.88" width="5.57" height="5.58"/><rect class="cls-2" x="44.63" y="61.31" width="5.57" height="5.57"/><rect class="cls-3" x="44.63" y="55.73" width="5.57" height="5.58"/><rect class="cls-3" x="44.63" y="50.16" width="5.57" height="5.57"/><rect class="cls-3" x="44.63" y="44.59" width="5.57" height="5.57"/><polygon class="cls-4" points="50.2 39.02 50.2 44.59 44.63 44.59 44.63 39.02 50.17 39.02 50.2 39.02"/><polygon class="cls-3" points="50.17 33.44 50.17 39.02 44.63 39.02 44.61 39.02 44.6 39.02 44.6 33.44 50.17 33.44"/><rect class="cls-3" x="44.6" y="27.87" width="5.57" height="5.58"/><rect class="cls-2" x="44.6" y="22.3" width="5.57" height="5.57"/><rect class="cls-3" x="44.6" y="16.72" width="5.57" height="5.58"/><rect class="cls-1" x="44.6" y="11.15" width="5.57" height="5.57"/><rect class="cls-1" x="44.6" y="5.58" width="5.57" height="5.57"/><rect class="cls-1" x="39.04" y="61.31" width="5.57" height="5.57"/><rect class="cls-2" x="39.04" y="55.73" width="5.57" height="5.58"/><rect class="cls-3" x="39.04" y="50.16" width="5.57" height="5.57"/><rect class="cls-4" x="39.04" y="44.59" width="5.57" height="5.57"/><polygon class="cls-3" points="44.61 39.02 44.61 44.59 39.04 44.59 39.04 39.02 44.59 39.02 44.6 39.02 44.61 39.02"/><polygon class="cls-3" points="44.59 33.44 44.59 39.02 39.04 39.02 39.02 39.02 39.02 33.44 44.59 33.44"/><rect class="cls-3" x="39.02" y="27.87" width="5.57" height="5.58"/><rect class="cls-3" x="39.02" y="22.3" width="5.57" height="5.57"/><rect class="cls-3" x="39.02" y="16.72" width="5.57" height="5.58"/><rect class="cls-4" x="39.02" y="11.15" width="5.57" height="5.57"/><rect class="cls-4" x="39.02" y="5.58" width="5.57" height="5.57"/><rect class="cls-1" x="39.02" width="5.57" height="5.58"/><rect class="cls-1" x="33.47" y="66.88" width="5.57" height="5.58"/><rect class="cls-2" x="33.47" y="61.31" width="5.57" height="5.57"/><rect class="cls-3" x="33.47" y="55.73" width="5.57" height="5.58"/><rect class="cls-3" x="33.47" y="50.16" width="5.57" height="5.57"/><rect class="cls-3" x="33.47" y="44.59" width="5.57" height="5.57"/><polygon class="cls-3" points="39.04 39.02 39.04 44.59 33.47 44.59 33.47 39.02 39.02 39.02 39.04 39.02"/><polygon class="cls-3" points="39.02 33.44 39.02 39.02 33.47 39.02 33.44 39.02 33.44 33.44 39.02 33.44"/><rect class="cls-3" x="33.44" y="27.87" width="5.58" height="5.58"/><rect class="cls-4" x="33.44" y="22.3" width="5.58" height="5.57"/><rect class="cls-4" x="33.44" y="16.72" width="5.58" height="5.58"/><rect class="cls-1" x="33.44" y="11.15" width="5.58" height="5.57"/><rect class="cls-1" x="33.44" y="5.58" width="5.58" height="5.57"/><rect class="cls-1" x="27.89" y="72.46" width="5.58" height="5.57"/><rect class="cls-2" x="27.89" y="66.88" width="5.58" height="5.58"/><rect class="cls-3" x="27.89" y="61.31" width="5.58" height="5.57"/><rect class="cls-3" x="27.89" y="55.73" width="5.58" height="5.58"/><rect class="cls-3" x="27.89" y="50.16" width="5.58" height="5.57"/><rect class="cls-3" x="27.89" y="44.59" width="5.58" height="5.57"/><polygon class="cls-3" points="33.47 39.02 33.47 44.59 27.89 44.59 27.89 39.02 33.44 39.02 33.47 39.02"/><polygon class="cls-3" points="33.44 33.44 33.44 39.02 27.89 39.02 27.87 39.02 27.87 33.44 33.44 33.44"/><rect class="cls-3" x="27.87" y="27.87" width="5.57" height="5.58"/><rect class="cls-1" x="27.87" y="22.3" width="5.57" height="5.57"/><rect class="cls-1" x="27.87" y="16.72" width="5.57" height="5.58"/><rect class="cls-1" x="22.32" y="72.46" width="5.57" height="5.57"/><rect class="cls-2" x="22.32" y="66.88" width="5.57" height="5.58"/><rect class="cls-3" x="22.32" y="61.31" width="5.57" height="5.57"/><rect class="cls-1" x="22.32" y="55.73" width="5.57" height="5.58"/><rect class="cls-3" x="22.32" y="50.16" width="5.57" height="5.57"/><rect class="cls-4" x="22.32" y="44.59" width="5.57" height="5.57"/><polygon class="cls-3" points="27.89 39.02 27.89 44.59 22.32 44.59 22.32 39.02 27.87 39.02 27.89 39.02"/><polygon class="cls-4" points="27.87 33.44 27.87 39.02 22.32 39.02 22.29 39.02 22.29 33.44 27.87 33.44"/><rect class="cls-1" x="22.29" y="27.87" width="5.58" height="5.58"/><rect class="cls-1" x="16.75" y="78.03" width="5.58" height="5.57"/><rect class="cls-2" x="16.75" y="72.46" width="5.58" height="5.57"/><rect class="cls-3" x="16.75" y="66.88" width="5.58" height="5.58"/><rect class="cls-3" x="16.75" y="61.31" width="5.58" height="5.57"/><rect class="cls-1" x="16.75" y="55.73" width="5.58" height="5.58"/><rect class="cls-1" x="16.75" y="50.16" width="5.58" height="5.57"/><rect class="cls-3" x="16.75" y="44.59" width="5.58" height="5.57"/><polygon class="cls-3" points="22.32 39.02 22.32 44.59 16.75 44.59 16.75 39.02 22.29 39.02 22.32 39.02"/><polygon class="cls-4" points="22.29 33.44 22.29 39.02 16.75 39.02 16.72 39.02 16.72 33.44 22.29 33.44"/><rect class="cls-1" x="16.72" y="27.87" width="5.57" height="5.58"/><rect class="cls-1" x="11.17" y="78.03" width="5.57" height="5.57"/><rect class="cls-2" x="11.17" y="72.46" width="5.57" height="5.57"/><rect class="cls-1" x="11.17" y="66.88" width="5.57" height="5.58"/><rect class="cls-1" x="11.17" y="61.31" width="5.57" height="5.57"/><rect class="cls-1" x="11.17" y="44.59" width="5.57" height="5.57"/><polygon class="cls-3" points="16.75 39.02 16.75 44.59 11.18 44.59 11.18 39.02 16.72 39.02 16.75 39.02"/><polygon class="cls-4" points="16.72 33.44 16.72 39.02 11.18 39.02 11.15 39.02 11.15 33.44 16.72 33.44"/><rect class="cls-1" x="11.15" y="27.87" width="5.57" height="5.58"/><rect class="cls-1" x="5.6" y="78.03" width="5.57" height="5.57"/><rect class="cls-1" x="5.6" y="72.46" width="5.57" height="5.57"/><polygon class="cls-1" points="11.18 39.02 11.18 44.59 5.6 44.59 5.6 39.02 11.15 39.02 11.18 39.02"/><polygon class="cls-4" points="11.15 33.44 11.15 39.02 5.6 39.02 5.57 39.02 5.57 33.44 11.15 33.44"/><rect class="cls-1" x="5.57" y="27.87" width="5.58" height="5.58"/><polygon class="cls-1" points="5.57 33.44 5.57 39.02 0.03 39.02 0 39.02 0 33.44 5.57 33.44"/><rect class="cls-1" y="27.87" width="5.57" height="5.58"/></svg>