<svg id="Слой_1" data-name="Слой 1" xmlns="http://www.w3.org/2000/svg" viewBox="0 0 152.29 161.29"><defs><style>.cls-1{fill:#f7dd87;}.cls-2{fill:#f5ca3b;}.cls-3{fill:#fff;}.cls-4{fill:#f6a135;}</style></defs><rect class="cls-1" x="125.5" y="62.79" width="26.79" height="9.07"/><rect class="cls-1" x="143.6" y="44.93" width="8.69" height="17.86"/><rect class="cls-1" x="116.53" y="53.86" width="18.05" height="8.93"/><rect class="cls-1" x="80.24" y="44.93" width="36.28" height="8.93"/><rect class="cls-1" x="71.31" y="53.86" width="8.93" height="8.93"/><rect class="cls-1" x="62.43" y="62.79" width="8.88" height="35.86"/><rect class="cls-1" x="71.31" y="98.65" width="8.93" height="8.93"/><rect class="cls-1" x="80.24" y="107.57" width="36.28" height="8.93"/><rect class="cls-1" x="116.53" y="98.65" width="18.05" height="8.93"/><rect class="cls-1" x="125.5" y="89.57" width="26.79" height="9.07"/><rect class="cls-1" x="143.6" y="98.65" width="8.69" height="17.72"/><rect class="cls-1" x="134.55" y="27.07" width="8.69" height="17.86"/><rect class="cls-1" x="134.55" y="116.36" width="8.69" height="17.86"/><rect class="cls-1" x="125.5" y="134.22" width="8.93" height="8.93"/><rect class="cls-1" x="125.5" y="18.14" width="8.93" height="8.93"/><rect class="cls-1" x="107.5" y="143.43" width="18.05" height="8.93"/><rect class="cls-1" x="107.5" y="9.07" width="18.05" height="8.93"/><rect class="cls-1" x="44.6" width="63" height="8.93"/><rect class="cls-1" x="44.5" y="152.36" width="63" height="8.93"/><rect class="cls-1" x="26.55" y="8.93" width="18.05" height="8.93"/><rect class="cls-1" x="26.46" y="143.43" width="18.05" height="8.93"/><rect class="cls-1" x="17.62" y="18.14" width="8.93" height="8.93"/><rect class="cls-1" x="17.62" y="134.5" width="8.93" height="8.93"/><rect class="cls-1" x="8.93" y="27.07" width="8.69" height="17.86"/><rect class="cls-1" x="8.93" y="116.65" width="8.69" height="17.86"/><rect class="cls-1" x="-31.25" y="76.18" width="71.43" height="8.93" transform="translate(-76.18 85.11) rotate(-90)"/><polygon class="cls-2" points="143.6 62.79 143.6 44.93 134.57 44.93 134.57 27.07 125.5 27.07 125.5 18 107.5 18 107.5 9.07 44.6 9.07 44.6 18 26.55 18 26.55 27.07 17.62 27.07 17.62 44.93 8.93 44.93 8.93 116.65 17.62 116.65 17.62 134.5 26.55 134.5 26.55 143.43 44.5 143.43 44.5 152.36 107.5 152.36 107.5 143.43 125.5 143.43 125.5 134.5 134.57 134.5 134.57 116.36 143.6 116.36 143.6 98.65 134.57 98.65 134.57 107.58 116.53 107.58 116.53 116.43 80.24 116.43 80.24 107.58 71.31 107.58 71.31 98.65 62.43 98.65 62.43 62.79 71.31 62.79 71.31 53.86 80.24 53.86 80.24 44.93 116.53 44.93 116.53 53.86 134.43 53.86 134.43 62.79 143.6 62.79"/><rect class="cls-3" x="107.5" y="17.86" width="18.05" height="8.93"/><rect class="cls-3" x="44.53" y="9.07" width="63" height="8.93"/><rect class="cls-3" x="26.55" y="17.86" width="26.79" height="9.07"/><rect class="cls-3" x="17.62" y="26.93" width="18.05" height="8.93"/><polygon class="cls-3" points="17.62 35.86 17.62 44.93 17.62 54 26.55 54 26.55 44.93 26.55 35.86 17.62 35.86"/><rect class="cls-4" x="-4.46" y="94.04" width="35.72" height="8.93" transform="translate(-85.11 111.9) rotate(-90)"/><polygon class="cls-4" points="17.62 116.22 17.62 125.29 17.62 134.36 26.55 134.36 26.55 125.29 26.55 116.22 17.62 116.22"/><rect class="cls-4" x="26.46" y="134.43" width="18.05" height="8.93"/><rect class="cls-4" x="26.55" y="125.57" width="8.93" height="8.93"/><rect class="cls-4" x="44.5" y="143.43" width="63" height="8.93"/><rect class="cls-4" x="98.76" y="134.36" width="26.79" height="9.07"/><polygon class="cls-4" points="125.5 116.43 125.5 125.5 125.5 134.57 134.43 134.57 134.43 125.5 134.43 116.43 125.5 116.43"/><rect class="cls-3" x="-4.3" y="58.3" width="35.39" height="8.93" transform="translate(-49.37 76.16) rotate(-90)"/><rect x="43.96" y="62.91" width="18.34" height="8.73"/><rect x="34.98" y="53.94" width="8.98" height="8.98"/></svg>