<svg id="Layer_1" data-name="Layer 1" xmlns="http://www.w3.org/2000/svg" viewBox="0 0 14 14"><defs><style>.cls-1{fill:#231e2b;}.cls-2{fill:#4fab59;}.cls-3{fill:#356e69;}.cls-4{fill:#e8be9b;}.cls-5{fill:#acc756;}.cls-6{fill:#c7936b;}</style></defs><path class="cls-1" d="M13,9H2v5H14V3H13Zm0,4H3V10H13Z"/><rect class="cls-1" x="12" y="2" width="1" height="1"/><rect class="cls-1" x="11" y="3" width="1" height="1"/><path class="cls-2" d="M12,10H3v1H4v2h9V10Zm-1,2H10V11h1Z"/><rect class="cls-3" x="10" y="11" width="1" height="1"/><rect class="cls-1" x="9" y="2" width="2" height="1"/><rect class="cls-1" x="8" y="3" width="1" height="1"/><polygon class="cls-1" points="5 4 6 4 6 3 8 3 8 2 6 2 6 1 5 1 5 4"/><rect class="cls-1" x="3" width="2" height="1"/><polygon class="cls-4" points="12 3 12 4 11 4 11 3 9 3 9 4 8 4 8 3 6 3 6 4 5 4 5 1 3 1 3 6 1 6 1 8 2 8 2 9 12 9 13 9 13 3 12 3"/><rect class="cls-5" x="3" y="11" width="1" height="2"/><polygon class="cls-1" points="3 6 3 1 2 1 2 5 1 5 1 6 3 6"/><rect class="cls-1" x="1" y="8" width="1" height="1"/><rect class="cls-1" y="6" width="1" height="2"/><rect class="cls-6" x="2" y="8" width="11" height="1"/></svg>