<svg id="a" xmlns="http://www.w3.org/2000/svg" viewBox="0 0 896.66 611.99"><defs><style>.b{fill:#fff;}.c{fill:#fee010;}.d{fill:#050304;}.e{fill:#ca2527;}.f{fill:#f5e83a;}</style></defs>
    <g>
        <polygon class="d" points="189 611.99 303 611.99 303 350.99 189 350.99 189 434.99 177 434.99 177 413.99 126 413.99 126 434.99 114 434.99 114 350.99 0 350.99 0 611.99 114 611.99 114 590.99 135 590.99 135 569.99 168 569.99 168 590.99 189 590.99 189 611.99"/>
        <path class="e" d="M99,596.99H15v-210H99v105h21v-21h21v-21h21v21h21v21h21v-105h84v210h-84v-21h-21v-21h-21v-21h-21v21h-21v21h-21v21Z"/>
        <path class="c" d="M99,575.99H15v-210H99v105h21v-21h21v-21h21v21h21v21h21v-105h84v210h-84v-21h-21v-21h-21v-21h-21v21h-21v21h-21v21Z"/>
        <polygon class="f" points="183 470.99 183 449.99 162 449.99 162 428.99 141 428.99 141 449.99 120 449.99 120 470.99 183 470.99"/>
        <rect class="f" x="204" y="365.99" width="84" height="105"/><rect class="f" x="15" y="365.99" width="84" height="105"/>
        <rect class="b" x="204" y="365.99" width="84" height="21"/><rect class="b" x="15" y="365.99" width="84" height="21"/>
    </g>
    <g>
        <polygon class="d" points="584.08 611.99 584.08 518.99 521.08 518.99 521.08 443.99 584.08 443.99 584.08 350.99 344.08 350.99 344.08 443.99 407.08 443.99 407.08 518.99 344.08 518.99 344.08 611.99 584.08 611.99"/><path class="e" d="M359.08,386.99h210v42h-63v126h63v42h-210v-42h63v-126h-63v-42Z"/>
        <path class="c" d="M359.08,365.99h210v42h-63v126h63v42h-210v-42h63v-126h-63v-42Z"/>
        <polygon class="f" points="422.08 471.04 506.08 471.04 506.08 407.99 569.08 407.99 569.08 365.99 359.08 365.99 359.08 407.99 422.08 407.99 422.08 471.04"/>
        <rect class="b" x="358.94" y="365.99" width="210" height="21"/>
    </g>
    <g>
        <polygon class="d" points="772.16 350.99 772.16 392.99 760.16 392.99 760.16 371.99 739.16 371.99 739.16 350.99 625.16 350.99 625.16 611.99 739.16 611.99 739.16 527.99 751.16 527.99 751.16 548.99 772.16 548.99 772.16 611.99 886.16 611.99 886.16 350.99 772.16 350.99"/>
        <path class="e" d="M724.16,596.99h-84v-210h84v21h21v21h21v21h21v-63h84v210h-84v-63h-21v-21h-21v-21h-21v105Z"/>
        <path class="c" d="M724.16,575.99h-84v-210h84v21h21v21h21v21h21v-63h84v210h-84v-63h-21v-21h-21v-21h-21v105Z"/>
        <polygon class="f" points="871.16 471.12 871.16 365.99 787.16 365.99 787.16 428.99 766.16 428.99 766.16 407.99 745.16 407.99 745.16 386.99 724.16 386.99 724.16 365.99 640.16 365.99 640.16 471.12 871.16 471.12"/>
        <rect class="b" x="787.16" y="365.99" width="84" height="20.55"/><rect class="b" x="640.16" y="365.99" width="84" height="20.55"/>
    </g>
    <g>
        <polygon class="d" points="635.66 0 635.66 240 656.66 240 656.66 261 875.66 261 875.66 240 896.66 240 896.66 0 782.66 0 782.66 168 749.66 168 749.66 0 635.66 0"/>
        <path class="e" d="M860.66,246h-189v-21h-21V36h84V204h63V36h84V225h-21v21Z"/>
        <path class="c" d="M860.66,225h-189v-21h-21V15h84V183h63V15h84V204h-21v21Z"/>
        <rect class="f" x="797.66" y="15" width="84" height="105"/>
        <rect class="f" x="650.66" y="15" width="84" height="105"/>
        <rect class="b" x="797.66" y="15" width="84" height="21"/>
        <rect class="b" x="650.66" y="15" width="84" height="21"/>
    </g>
    <g>
        <path class="d" d="M573.58,0h-219V21h-21V240h21v21h219v-21h21V21h-21V0Zm-126,168V93h33v75h-33Z"/>
        <path class="e" d="M558.58,246h-189v-21h-21V57h21v-21h189v21h21V225h-21v21Zm-63-126v-42h-63v126h63V120Z"/>
        <path class="c" d="M558.58,225h-189v-21h-21V36h21V15h189v21h21V204h-21v21Zm-63-126V57h-63v126h63V99Z"/>
        <polygon class="f" points="432.58 120.13 432.58 57 495.58 57 495.58 120.13 579.58 120.13 579.58 36 558.58 36 558.58 15 369.58 15 369.58 36 348.58 36 348.58 120.13 432.58 120.13"/>
        <rect class="b" x="369.58" y="15" width="189" height="20.55"/>
    </g>
    <g>
        <polygon class="d" points="94.5 261 208.5 261 208.5 177 250.5 177 250.5 156 271.5 156 271.5 135 292.5 135 292.5 0 178.5 0 178.5 63 157.5 63 157.5 84 145.5 84 145.5 63 124.5 63 124.5 0 10.5 0 10.5 135 31.5 135 31.5 156 52.5 156 52.5 177 94.5 177 94.5 261"/>
        <path class="e" d="M25.5,36H109.5v63h21v21h42v-21h21V36h84V120h-21v21h-21v21h-42v84H109.5v-84h-42v-21h-21v-21H25.5V36Z"/>
        <path class="c" d="M25.5,15H109.5v63h21v21h42v-21h21V15h84V99h-21v21h-21v21h-42v84H109.5v-84h-42v-21h-21v-21H25.5V15Z"/>
        <polygon class="f" points="46.5 120 256.5 120 256.5 99 277.5 99 277.5 15 193.5 15 193.5 78 172.5 78 172.5 99 130.5 99 130.5 78 109.5 78 109.5 15 25.5 15 25.5 99 46.5 99 46.5 120"/>
        <rect class="b" x="193.5" y="15" width="84" height="21"/><rect class="b" x="25.5" y="15" width="84" height="21"/>
    </g>
</svg>